<?xml version="1.0" encoding="utf-8" standalone="no"?>
<!DOCTYPE svg PUBLIC "-//W3C//DTD SVG 1.1//EN"
  "http://www.w3.org/Graphics/SVG/1.1/DTD/svg11.dtd">
<svg xmlns:xlink="http://www.w3.org/1999/xlink" width="288pt" height="288pt" viewBox="0 0 288 288" xmlns="http://www.w3.org/2000/svg" version="1.1">
 <metadata>
  <rdf:RDF xmlns:dc="http://purl.org/dc/elements/1.1/" xmlns:cc="http://creativecommons.org/ns#" xmlns:rdf="http://www.w3.org/1999/02/22-rdf-syntax-ns#">
   <cc:Work>
    <dc:type rdf:resource="http://purl.org/dc/dcmitype/StillImage"/>
    <dc:date>2025-05-13T10:02:21.768492</dc:date>
    <dc:format>image/svg+xml</dc:format>
    <dc:creator>
     <cc:Agent>
      <dc:title>Matplotlib v3.9.2, https://matplotlib.org/</dc:title>
     </cc:Agent>
    </dc:creator>
   </cc:Work>
  </rdf:RDF>
 </metadata>
 <defs>
  <style type="text/css">*{stroke-linejoin: round; stroke-linecap: butt}</style>
 </defs>
 <g id="figure_1">
  <g id="patch_1">
   <path d="M 0 288 
L 288 288 
L 288 0 
L 0 0 
z
" style="fill: #ffffff"/>
  </g>
  <g id="axes_1">
   <g id="patch_2">
    <path d="M 49.485185 246.04 
L 277.2 246.04 
L 277.2 26.16 
L 49.485185 26.16 
z
" style="fill: #ffffff"/>
   </g>
   <g id="matplotlib.axis_1">
    <g id="xtick_1">
     <g id="line2d_1">
      <defs>
       <path id="m66717a37c1" d="M 0 0 
L 0 3.5 
" style="stroke: #000000; stroke-width: 0.8"/>
      </defs>
      <g>
       <use xlink:href="#m66717a37c1" x="81.62675" y="246.04" style="stroke: #000000; stroke-width: 0.8"/>
      </g>
     </g>
     <g id="text_1">
      <!-- Mock -->
      <g transform="translate(68.608781 260.638438) scale(0.1 -0.1)">
       <defs>
        <path id="DejaVuSans-4d" d="M 628 4666 
L 1569 4666 
L 2759 1491 
L 3956 4666 
L 4897 4666 
L 4897 0 
L 4281 0 
L 4281 4097 
L 3078 897 
L 2444 897 
L 1241 4097 
L 1241 0 
L 628 0 
L 628 4666 
z
" transform="scale(0.015625)"/>
        <path id="DejaVuSans-6f" d="M 1959 3097 
Q 1497 3097 1228 2736 
Q 959 2375 959 1747 
Q 959 1119 1226 758 
Q 1494 397 1959 397 
Q 2419 397 2687 759 
Q 2956 1122 2956 1747 
Q 2956 2369 2687 2733 
Q 2419 3097 1959 3097 
z
M 1959 3584 
Q 2709 3584 3137 3096 
Q 3566 2609 3566 1747 
Q 3566 888 3137 398 
Q 2709 -91 1959 -91 
Q 1206 -91 779 398 
Q 353 888 353 1747 
Q 353 2609 779 3096 
Q 1206 3584 1959 3584 
z
" transform="scale(0.015625)"/>
        <path id="DejaVuSans-63" d="M 3122 3366 
L 3122 2828 
Q 2878 2963 2633 3030 
Q 2388 3097 2138 3097 
Q 1578 3097 1268 2742 
Q 959 2388 959 1747 
Q 959 1106 1268 751 
Q 1578 397 2138 397 
Q 2388 397 2633 464 
Q 2878 531 3122 666 
L 3122 134 
Q 2881 22 2623 -34 
Q 2366 -91 2075 -91 
Q 1284 -91 818 406 
Q 353 903 353 1747 
Q 353 2603 823 3093 
Q 1294 3584 2113 3584 
Q 2378 3584 2631 3529 
Q 2884 3475 3122 3366 
z
" transform="scale(0.015625)"/>
        <path id="DejaVuSans-6b" d="M 581 4863 
L 1159 4863 
L 1159 1991 
L 2875 3500 
L 3609 3500 
L 1753 1863 
L 3688 0 
L 2938 0 
L 1159 1709 
L 1159 0 
L 581 0 
L 581 4863 
z
" transform="scale(0.015625)"/>
       </defs>
       <use xlink:href="#DejaVuSans-4d"/>
       <use xlink:href="#DejaVuSans-6f" x="86.279297"/>
       <use xlink:href="#DejaVuSans-63" x="147.460938"/>
       <use xlink:href="#DejaVuSans-6b" x="202.441406"/>
      </g>
     </g>
    </g>
    <g id="xtick_2">
     <g id="line2d_2">
      <g>
       <use xlink:href="#m66717a37c1" x="136.103978" y="246.04" style="stroke: #000000; stroke-width: 0.8"/>
      </g>
     </g>
     <g id="text_2">
      <!-- Avian -->
      <g transform="translate(122.396166 260.638438) scale(0.1 -0.1)">
       <defs>
        <path id="DejaVuSans-41" d="M 2188 4044 
L 1331 1722 
L 3047 1722 
L 2188 4044 
z
M 1831 4666 
L 2547 4666 
L 4325 0 
L 3669 0 
L 3244 1197 
L 1141 1197 
L 716 0 
L 50 0 
L 1831 4666 
z
" transform="scale(0.015625)"/>
        <path id="DejaVuSans-76" d="M 191 3500 
L 800 3500 
L 1894 563 
L 2988 3500 
L 3597 3500 
L 2284 0 
L 1503 0 
L 191 3500 
z
" transform="scale(0.015625)"/>
        <path id="DejaVuSans-69" d="M 603 3500 
L 1178 3500 
L 1178 0 
L 603 0 
L 603 3500 
z
M 603 4863 
L 1178 4863 
L 1178 4134 
L 603 4134 
L 603 4863 
z
" transform="scale(0.015625)"/>
        <path id="DejaVuSans-61" d="M 2194 1759 
Q 1497 1759 1228 1600 
Q 959 1441 959 1056 
Q 959 750 1161 570 
Q 1363 391 1709 391 
Q 2188 391 2477 730 
Q 2766 1069 2766 1631 
L 2766 1759 
L 2194 1759 
z
M 3341 1997 
L 3341 0 
L 2766 0 
L 2766 531 
Q 2569 213 2275 61 
Q 1981 -91 1556 -91 
Q 1019 -91 701 211 
Q 384 513 384 1019 
Q 384 1609 779 1909 
Q 1175 2209 1959 2209 
L 2766 2209 
L 2766 2266 
Q 2766 2663 2505 2880 
Q 2244 3097 1772 3097 
Q 1472 3097 1187 3025 
Q 903 2953 641 2809 
L 641 3341 
Q 956 3463 1253 3523 
Q 1550 3584 1831 3584 
Q 2591 3584 2966 3190 
Q 3341 2797 3341 1997 
z
" transform="scale(0.015625)"/>
        <path id="DejaVuSans-6e" d="M 3513 2113 
L 3513 0 
L 2938 0 
L 2938 2094 
Q 2938 2591 2744 2837 
Q 2550 3084 2163 3084 
Q 1697 3084 1428 2787 
Q 1159 2491 1159 1978 
L 1159 0 
L 581 0 
L 581 3500 
L 1159 3500 
L 1159 2956 
Q 1366 3272 1645 3428 
Q 1925 3584 2291 3584 
Q 2894 3584 3203 3211 
Q 3513 2838 3513 2113 
z
" transform="scale(0.015625)"/>
       </defs>
       <use xlink:href="#DejaVuSans-41"/>
       <use xlink:href="#DejaVuSans-76" x="62.533203"/>
       <use xlink:href="#DejaVuSans-69" x="121.712891"/>
       <use xlink:href="#DejaVuSans-61" x="149.496094"/>
       <use xlink:href="#DejaVuSans-6e" x="210.775391"/>
      </g>
     </g>
    </g>
    <g id="xtick_3">
     <g id="line2d_3">
      <g>
       <use xlink:href="#m66717a37c1" x="190.581207" y="246.04" style="stroke: #000000; stroke-width: 0.8"/>
      </g>
     </g>
     <g id="text_3">
      <!-- Swine -->
      <g transform="translate(175.68355 260.638438) scale(0.1 -0.1)">
       <defs>
        <path id="DejaVuSans-53" d="M 3425 4513 
L 3425 3897 
Q 3066 4069 2747 4153 
Q 2428 4238 2131 4238 
Q 1616 4238 1336 4038 
Q 1056 3838 1056 3469 
Q 1056 3159 1242 3001 
Q 1428 2844 1947 2747 
L 2328 2669 
Q 3034 2534 3370 2195 
Q 3706 1856 3706 1288 
Q 3706 609 3251 259 
Q 2797 -91 1919 -91 
Q 1588 -91 1214 -16 
Q 841 59 441 206 
L 441 856 
Q 825 641 1194 531 
Q 1563 422 1919 422 
Q 2459 422 2753 634 
Q 3047 847 3047 1241 
Q 3047 1584 2836 1778 
Q 2625 1972 2144 2069 
L 1759 2144 
Q 1053 2284 737 2584 
Q 422 2884 422 3419 
Q 422 4038 858 4394 
Q 1294 4750 2059 4750 
Q 2388 4750 2728 4690 
Q 3069 4631 3425 4513 
z
" transform="scale(0.015625)"/>
        <path id="DejaVuSans-77" d="M 269 3500 
L 844 3500 
L 1563 769 
L 2278 3500 
L 2956 3500 
L 3675 769 
L 4391 3500 
L 4966 3500 
L 4050 0 
L 3372 0 
L 2619 2869 
L 1863 0 
L 1184 0 
L 269 3500 
z
" transform="scale(0.015625)"/>
        <path id="DejaVuSans-65" d="M 3597 1894 
L 3597 1613 
L 953 1613 
Q 991 1019 1311 708 
Q 1631 397 2203 397 
Q 2534 397 2845 478 
Q 3156 559 3463 722 
L 3463 178 
Q 3153 47 2828 -22 
Q 2503 -91 2169 -91 
Q 1331 -91 842 396 
Q 353 884 353 1716 
Q 353 2575 817 3079 
Q 1281 3584 2069 3584 
Q 2775 3584 3186 3129 
Q 3597 2675 3597 1894 
z
M 3022 2063 
Q 3016 2534 2758 2815 
Q 2500 3097 2075 3097 
Q 1594 3097 1305 2825 
Q 1016 2553 972 2059 
L 3022 2063 
z
" transform="scale(0.015625)"/>
       </defs>
       <use xlink:href="#DejaVuSans-53"/>
       <use xlink:href="#DejaVuSans-77" x="63.476562"/>
       <use xlink:href="#DejaVuSans-69" x="145.263672"/>
       <use xlink:href="#DejaVuSans-6e" x="173.046875"/>
       <use xlink:href="#DejaVuSans-65" x="236.425781"/>
      </g>
     </g>
    </g>
    <g id="xtick_4">
     <g id="line2d_4">
      <g>
       <use xlink:href="#m66717a37c1" x="245.058435" y="246.04" style="stroke: #000000; stroke-width: 0.8"/>
      </g>
     </g>
     <g id="text_4">
      <!-- Reassortant -->
      <g transform="translate(215.191248 260.638438) scale(0.1 -0.1)">
       <defs>
        <path id="DejaVuSans-52" d="M 2841 2188 
Q 3044 2119 3236 1894 
Q 3428 1669 3622 1275 
L 4263 0 
L 3584 0 
L 2988 1197 
Q 2756 1666 2539 1819 
Q 2322 1972 1947 1972 
L 1259 1972 
L 1259 0 
L 628 0 
L 628 4666 
L 2053 4666 
Q 2853 4666 3247 4331 
Q 3641 3997 3641 3322 
Q 3641 2881 3436 2590 
Q 3231 2300 2841 2188 
z
M 1259 4147 
L 1259 2491 
L 2053 2491 
Q 2509 2491 2742 2702 
Q 2975 2913 2975 3322 
Q 2975 3731 2742 3939 
Q 2509 4147 2053 4147 
L 1259 4147 
z
" transform="scale(0.015625)"/>
        <path id="DejaVuSans-73" d="M 2834 3397 
L 2834 2853 
Q 2591 2978 2328 3040 
Q 2066 3103 1784 3103 
Q 1356 3103 1142 2972 
Q 928 2841 928 2578 
Q 928 2378 1081 2264 
Q 1234 2150 1697 2047 
L 1894 2003 
Q 2506 1872 2764 1633 
Q 3022 1394 3022 966 
Q 3022 478 2636 193 
Q 2250 -91 1575 -91 
Q 1294 -91 989 -36 
Q 684 19 347 128 
L 347 722 
Q 666 556 975 473 
Q 1284 391 1588 391 
Q 1994 391 2212 530 
Q 2431 669 2431 922 
Q 2431 1156 2273 1281 
Q 2116 1406 1581 1522 
L 1381 1569 
Q 847 1681 609 1914 
Q 372 2147 372 2553 
Q 372 3047 722 3315 
Q 1072 3584 1716 3584 
Q 2034 3584 2315 3537 
Q 2597 3491 2834 3397 
z
" transform="scale(0.015625)"/>
        <path id="DejaVuSans-72" d="M 2631 2963 
Q 2534 3019 2420 3045 
Q 2306 3072 2169 3072 
Q 1681 3072 1420 2755 
Q 1159 2438 1159 1844 
L 1159 0 
L 581 0 
L 581 3500 
L 1159 3500 
L 1159 2956 
Q 1341 3275 1631 3429 
Q 1922 3584 2338 3584 
Q 2397 3584 2469 3576 
Q 2541 3569 2628 3553 
L 2631 2963 
z
" transform="scale(0.015625)"/>
        <path id="DejaVuSans-74" d="M 1172 4494 
L 1172 3500 
L 2356 3500 
L 2356 3053 
L 1172 3053 
L 1172 1153 
Q 1172 725 1289 603 
Q 1406 481 1766 481 
L 2356 481 
L 2356 0 
L 1766 0 
Q 1100 0 847 248 
Q 594 497 594 1153 
L 594 3053 
L 172 3053 
L 172 3500 
L 594 3500 
L 594 4494 
L 1172 4494 
z
" transform="scale(0.015625)"/>
       </defs>
       <use xlink:href="#DejaVuSans-52"/>
       <use xlink:href="#DejaVuSans-65" x="64.982422"/>
       <use xlink:href="#DejaVuSans-61" x="126.505859"/>
       <use xlink:href="#DejaVuSans-73" x="187.785156"/>
       <use xlink:href="#DejaVuSans-73" x="239.884766"/>
       <use xlink:href="#DejaVuSans-6f" x="291.984375"/>
       <use xlink:href="#DejaVuSans-72" x="353.166016"/>
       <use xlink:href="#DejaVuSans-74" x="394.279297"/>
       <use xlink:href="#DejaVuSans-61" x="433.488281"/>
       <use xlink:href="#DejaVuSans-6e" x="494.767578"/>
       <use xlink:href="#DejaVuSans-74" x="558.146484"/>
      </g>
     </g>
    </g>
    <g id="text_5">
     <!-- Virus -->
     <g transform="translate(150.816811 274.316562) scale(0.1 -0.1)">
      <defs>
       <path id="DejaVuSans-56" d="M 1831 0 
L 50 4666 
L 709 4666 
L 2188 738 
L 3669 4666 
L 4325 4666 
L 2547 0 
L 1831 0 
z
" transform="scale(0.015625)"/>
       <path id="DejaVuSans-75" d="M 544 1381 
L 544 3500 
L 1119 3500 
L 1119 1403 
Q 1119 906 1312 657 
Q 1506 409 1894 409 
Q 2359 409 2629 706 
Q 2900 1003 2900 1516 
L 2900 3500 
L 3475 3500 
L 3475 0 
L 2900 0 
L 2900 538 
Q 2691 219 2414 64 
Q 2138 -91 1772 -91 
Q 1169 -91 856 284 
Q 544 659 544 1381 
z
M 1991 3584 
L 1991 3584 
z
" transform="scale(0.015625)"/>
      </defs>
      <use xlink:href="#DejaVuSans-56"/>
      <use xlink:href="#DejaVuSans-69" x="66.158203"/>
      <use xlink:href="#DejaVuSans-72" x="93.941406"/>
      <use xlink:href="#DejaVuSans-75" x="135.054688"/>
      <use xlink:href="#DejaVuSans-73" x="198.433594"/>
     </g>
    </g>
   </g>
   <g id="matplotlib.axis_2">
    <g id="ytick_1">
     <g id="line2d_5">
      <defs>
       <path id="m2f535007e9" d="M 0 0 
L -3.5 0 
" style="stroke: #000000; stroke-width: 0.8"/>
      </defs>
      <g>
       <use xlink:href="#m2f535007e9" x="49.485185" y="210.937683" style="stroke: #000000; stroke-width: 0.8"/>
      </g>
     </g>
     <g id="text_6">
      <!-- $\mathdefault{10^{0}}$ -->
      <g transform="translate(24.885185 214.736902) scale(0.1 -0.1)">
       <defs>
        <path id="DejaVuSans-31" d="M 794 531 
L 1825 531 
L 1825 4091 
L 703 3866 
L 703 4441 
L 1819 4666 
L 2450 4666 
L 2450 531 
L 3481 531 
L 3481 0 
L 794 0 
L 794 531 
z
" transform="scale(0.015625)"/>
        <path id="DejaVuSans-30" d="M 2034 4250 
Q 1547 4250 1301 3770 
Q 1056 3291 1056 2328 
Q 1056 1369 1301 889 
Q 1547 409 2034 409 
Q 2525 409 2770 889 
Q 3016 1369 3016 2328 
Q 3016 3291 2770 3770 
Q 2525 4250 2034 4250 
z
M 2034 4750 
Q 2819 4750 3233 4129 
Q 3647 3509 3647 2328 
Q 3647 1150 3233 529 
Q 2819 -91 2034 -91 
Q 1250 -91 836 529 
Q 422 1150 422 2328 
Q 422 3509 836 4129 
Q 1250 4750 2034 4750 
z
" transform="scale(0.015625)"/>
       </defs>
       <use xlink:href="#DejaVuSans-31" transform="translate(0 0.765625)"/>
       <use xlink:href="#DejaVuSans-30" transform="translate(63.623047 0.765625)"/>
       <use xlink:href="#DejaVuSans-30" transform="translate(128.203125 39.046875) scale(0.7)"/>
      </g>
     </g>
    </g>
    <g id="ytick_2">
     <g id="line2d_6">
      <g>
       <use xlink:href="#m2f535007e9" x="49.485185" y="167.311521" style="stroke: #000000; stroke-width: 0.8"/>
      </g>
     </g>
     <g id="text_7">
      <!-- $\mathdefault{10^{1}}$ -->
      <g transform="translate(24.885185 171.110739) scale(0.1 -0.1)">
       <use xlink:href="#DejaVuSans-31" transform="translate(0 0.684375)"/>
       <use xlink:href="#DejaVuSans-30" transform="translate(63.623047 0.684375)"/>
       <use xlink:href="#DejaVuSans-31" transform="translate(128.203125 38.965625) scale(0.7)"/>
      </g>
     </g>
    </g>
    <g id="ytick_3">
     <g id="line2d_7">
      <g>
       <use xlink:href="#m2f535007e9" x="49.485185" y="123.685358" style="stroke: #000000; stroke-width: 0.8"/>
      </g>
     </g>
     <g id="text_8">
      <!-- $\mathdefault{10^{2}}$ -->
      <g transform="translate(24.885185 127.484577) scale(0.1 -0.1)">
       <defs>
        <path id="DejaVuSans-32" d="M 1228 531 
L 3431 531 
L 3431 0 
L 469 0 
L 469 531 
Q 828 903 1448 1529 
Q 2069 2156 2228 2338 
Q 2531 2678 2651 2914 
Q 2772 3150 2772 3378 
Q 2772 3750 2511 3984 
Q 2250 4219 1831 4219 
Q 1534 4219 1204 4116 
Q 875 4013 500 3803 
L 500 4441 
Q 881 4594 1212 4672 
Q 1544 4750 1819 4750 
Q 2544 4750 2975 4387 
Q 3406 4025 3406 3419 
Q 3406 3131 3298 2873 
Q 3191 2616 2906 2266 
Q 2828 2175 2409 1742 
Q 1991 1309 1228 531 
z
" transform="scale(0.015625)"/>
       </defs>
       <use xlink:href="#DejaVuSans-31" transform="translate(0 0.765625)"/>
       <use xlink:href="#DejaVuSans-30" transform="translate(63.623047 0.765625)"/>
       <use xlink:href="#DejaVuSans-32" transform="translate(128.203125 39.046875) scale(0.7)"/>
      </g>
     </g>
    </g>
    <g id="ytick_4">
     <g id="line2d_8">
      <g>
       <use xlink:href="#m2f535007e9" x="49.485185" y="80.059195" style="stroke: #000000; stroke-width: 0.8"/>
      </g>
     </g>
     <g id="text_9">
      <!-- $\mathdefault{10^{3}}$ -->
      <g transform="translate(24.885185 83.858414) scale(0.1 -0.1)">
       <defs>
        <path id="DejaVuSans-33" d="M 2597 2516 
Q 3050 2419 3304 2112 
Q 3559 1806 3559 1356 
Q 3559 666 3084 287 
Q 2609 -91 1734 -91 
Q 1441 -91 1130 -33 
Q 819 25 488 141 
L 488 750 
Q 750 597 1062 519 
Q 1375 441 1716 441 
Q 2309 441 2620 675 
Q 2931 909 2931 1356 
Q 2931 1769 2642 2001 
Q 2353 2234 1838 2234 
L 1294 2234 
L 1294 2753 
L 1863 2753 
Q 2328 2753 2575 2939 
Q 2822 3125 2822 3475 
Q 2822 3834 2567 4026 
Q 2313 4219 1838 4219 
Q 1578 4219 1281 4162 
Q 984 4106 628 3988 
L 628 4550 
Q 988 4650 1302 4700 
Q 1616 4750 1894 4750 
Q 2613 4750 3031 4423 
Q 3450 4097 3450 3541 
Q 3450 3153 3228 2886 
Q 3006 2619 2597 2516 
z
" transform="scale(0.015625)"/>
       </defs>
       <use xlink:href="#DejaVuSans-31" transform="translate(0 0.765625)"/>
       <use xlink:href="#DejaVuSans-30" transform="translate(63.623047 0.765625)"/>
       <use xlink:href="#DejaVuSans-33" transform="translate(128.203125 39.046875) scale(0.7)"/>
      </g>
     </g>
    </g>
    <g id="ytick_5">
     <g id="line2d_9">
      <g>
       <use xlink:href="#m2f535007e9" x="49.485185" y="36.433032" style="stroke: #000000; stroke-width: 0.8"/>
      </g>
     </g>
     <g id="text_10">
      <!-- $\mathdefault{10^{4}}$ -->
      <g transform="translate(24.885185 40.232251) scale(0.1 -0.1)">
       <defs>
        <path id="DejaVuSans-34" d="M 2419 4116 
L 825 1625 
L 2419 1625 
L 2419 4116 
z
M 2253 4666 
L 3047 4666 
L 3047 1625 
L 3713 1625 
L 3713 1100 
L 3047 1100 
L 3047 0 
L 2419 0 
L 2419 1100 
L 313 1100 
L 313 1709 
L 2253 4666 
z
" transform="scale(0.015625)"/>
       </defs>
       <use xlink:href="#DejaVuSans-31" transform="translate(0 0.684375)"/>
       <use xlink:href="#DejaVuSans-30" transform="translate(63.623047 0.684375)"/>
       <use xlink:href="#DejaVuSans-34" transform="translate(128.203125 38.965625) scale(0.7)"/>
      </g>
     </g>
    </g>
    <g id="ytick_6">
     <g id="line2d_10">
      <defs>
       <path id="m08b6cb0412" d="M 0 0 
L -2 0 
" style="stroke: #000000; stroke-width: 0.6"/>
      </defs>
      <g>
       <use xlink:href="#m08b6cb0412" x="49.485185" y="241.431062" style="stroke: #000000; stroke-width: 0.6"/>
      </g>
     </g>
    </g>
    <g id="ytick_7">
     <g id="line2d_11">
      <g>
       <use xlink:href="#m08b6cb0412" x="49.485185" y="233.748877" style="stroke: #000000; stroke-width: 0.6"/>
      </g>
     </g>
    </g>
    <g id="ytick_8">
     <g id="line2d_12">
      <g>
       <use xlink:href="#m08b6cb0412" x="49.485185" y="228.298279" style="stroke: #000000; stroke-width: 0.6"/>
      </g>
     </g>
    </g>
    <g id="ytick_9">
     <g id="line2d_13">
      <g>
       <use xlink:href="#m08b6cb0412" x="49.485185" y="224.070467" style="stroke: #000000; stroke-width: 0.6"/>
      </g>
     </g>
    </g>
    <g id="ytick_10">
     <g id="line2d_14">
      <g>
       <use xlink:href="#m08b6cb0412" x="49.485185" y="220.616093" style="stroke: #000000; stroke-width: 0.6"/>
      </g>
     </g>
    </g>
    <g id="ytick_11">
     <g id="line2d_15">
      <g>
       <use xlink:href="#m08b6cb0412" x="49.485185" y="217.695461" style="stroke: #000000; stroke-width: 0.6"/>
      </g>
     </g>
    </g>
    <g id="ytick_12">
     <g id="line2d_16">
      <g>
       <use xlink:href="#m08b6cb0412" x="49.485185" y="215.165495" style="stroke: #000000; stroke-width: 0.6"/>
      </g>
     </g>
    </g>
    <g id="ytick_13">
     <g id="line2d_17">
      <g>
       <use xlink:href="#m08b6cb0412" x="49.485185" y="212.933907" style="stroke: #000000; stroke-width: 0.6"/>
      </g>
     </g>
    </g>
    <g id="ytick_14">
     <g id="line2d_18">
      <g>
       <use xlink:href="#m08b6cb0412" x="49.485185" y="197.8049" style="stroke: #000000; stroke-width: 0.6"/>
      </g>
     </g>
    </g>
    <g id="ytick_15">
     <g id="line2d_19">
      <g>
       <use xlink:href="#m08b6cb0412" x="49.485185" y="190.122714" style="stroke: #000000; stroke-width: 0.6"/>
      </g>
     </g>
    </g>
    <g id="ytick_16">
     <g id="line2d_20">
      <g>
       <use xlink:href="#m08b6cb0412" x="49.485185" y="184.672116" style="stroke: #000000; stroke-width: 0.6"/>
      </g>
     </g>
    </g>
    <g id="ytick_17">
     <g id="line2d_21">
      <g>
       <use xlink:href="#m08b6cb0412" x="49.485185" y="180.444304" style="stroke: #000000; stroke-width: 0.6"/>
      </g>
     </g>
    </g>
    <g id="ytick_18">
     <g id="line2d_22">
      <g>
       <use xlink:href="#m08b6cb0412" x="49.485185" y="176.98993" style="stroke: #000000; stroke-width: 0.6"/>
      </g>
     </g>
    </g>
    <g id="ytick_19">
     <g id="line2d_23">
      <g>
       <use xlink:href="#m08b6cb0412" x="49.485185" y="174.069299" style="stroke: #000000; stroke-width: 0.6"/>
      </g>
     </g>
    </g>
    <g id="ytick_20">
     <g id="line2d_24">
      <g>
       <use xlink:href="#m08b6cb0412" x="49.485185" y="171.539333" style="stroke: #000000; stroke-width: 0.6"/>
      </g>
     </g>
    </g>
    <g id="ytick_21">
     <g id="line2d_25">
      <g>
       <use xlink:href="#m08b6cb0412" x="49.485185" y="169.307744" style="stroke: #000000; stroke-width: 0.6"/>
      </g>
     </g>
    </g>
    <g id="ytick_22">
     <g id="line2d_26">
      <g>
       <use xlink:href="#m08b6cb0412" x="49.485185" y="154.178737" style="stroke: #000000; stroke-width: 0.6"/>
      </g>
     </g>
    </g>
    <g id="ytick_23">
     <g id="line2d_27">
      <g>
       <use xlink:href="#m08b6cb0412" x="49.485185" y="146.496551" style="stroke: #000000; stroke-width: 0.6"/>
      </g>
     </g>
    </g>
    <g id="ytick_24">
     <g id="line2d_28">
      <g>
       <use xlink:href="#m08b6cb0412" x="49.485185" y="141.045953" style="stroke: #000000; stroke-width: 0.6"/>
      </g>
     </g>
    </g>
    <g id="ytick_25">
     <g id="line2d_29">
      <g>
       <use xlink:href="#m08b6cb0412" x="49.485185" y="136.818141" style="stroke: #000000; stroke-width: 0.6"/>
      </g>
     </g>
    </g>
    <g id="ytick_26">
     <g id="line2d_30">
      <g>
       <use xlink:href="#m08b6cb0412" x="49.485185" y="133.363767" style="stroke: #000000; stroke-width: 0.6"/>
      </g>
     </g>
    </g>
    <g id="ytick_27">
     <g id="line2d_31">
      <g>
       <use xlink:href="#m08b6cb0412" x="49.485185" y="130.443136" style="stroke: #000000; stroke-width: 0.6"/>
      </g>
     </g>
    </g>
    <g id="ytick_28">
     <g id="line2d_32">
      <g>
       <use xlink:href="#m08b6cb0412" x="49.485185" y="127.91317" style="stroke: #000000; stroke-width: 0.6"/>
      </g>
     </g>
    </g>
    <g id="ytick_29">
     <g id="line2d_33">
      <g>
       <use xlink:href="#m08b6cb0412" x="49.485185" y="125.681582" style="stroke: #000000; stroke-width: 0.6"/>
      </g>
     </g>
    </g>
    <g id="ytick_30">
     <g id="line2d_34">
      <g>
       <use xlink:href="#m08b6cb0412" x="49.485185" y="110.552574" style="stroke: #000000; stroke-width: 0.6"/>
      </g>
     </g>
    </g>
    <g id="ytick_31">
     <g id="line2d_35">
      <g>
       <use xlink:href="#m08b6cb0412" x="49.485185" y="102.870388" style="stroke: #000000; stroke-width: 0.6"/>
      </g>
     </g>
    </g>
    <g id="ytick_32">
     <g id="line2d_36">
      <g>
       <use xlink:href="#m08b6cb0412" x="49.485185" y="97.419791" style="stroke: #000000; stroke-width: 0.6"/>
      </g>
     </g>
    </g>
    <g id="ytick_33">
     <g id="line2d_37">
      <g>
       <use xlink:href="#m08b6cb0412" x="49.485185" y="93.191979" style="stroke: #000000; stroke-width: 0.6"/>
      </g>
     </g>
    </g>
    <g id="ytick_34">
     <g id="line2d_38">
      <g>
       <use xlink:href="#m08b6cb0412" x="49.485185" y="89.737605" style="stroke: #000000; stroke-width: 0.6"/>
      </g>
     </g>
    </g>
    <g id="ytick_35">
     <g id="line2d_39">
      <g>
       <use xlink:href="#m08b6cb0412" x="49.485185" y="86.816973" style="stroke: #000000; stroke-width: 0.6"/>
      </g>
     </g>
    </g>
    <g id="ytick_36">
     <g id="line2d_40">
      <g>
       <use xlink:href="#m08b6cb0412" x="49.485185" y="84.287007" style="stroke: #000000; stroke-width: 0.6"/>
      </g>
     </g>
    </g>
    <g id="ytick_37">
     <g id="line2d_41">
      <g>
       <use xlink:href="#m08b6cb0412" x="49.485185" y="82.055419" style="stroke: #000000; stroke-width: 0.6"/>
      </g>
     </g>
    </g>
    <g id="ytick_38">
     <g id="line2d_42">
      <g>
       <use xlink:href="#m08b6cb0412" x="49.485185" y="66.926412" style="stroke: #000000; stroke-width: 0.6"/>
      </g>
     </g>
    </g>
    <g id="ytick_39">
     <g id="line2d_43">
      <g>
       <use xlink:href="#m08b6cb0412" x="49.485185" y="59.244226" style="stroke: #000000; stroke-width: 0.6"/>
      </g>
     </g>
    </g>
    <g id="ytick_40">
     <g id="line2d_44">
      <g>
       <use xlink:href="#m08b6cb0412" x="49.485185" y="53.793628" style="stroke: #000000; stroke-width: 0.6"/>
      </g>
     </g>
    </g>
    <g id="ytick_41">
     <g id="line2d_45">
      <g>
       <use xlink:href="#m08b6cb0412" x="49.485185" y="49.565816" style="stroke: #000000; stroke-width: 0.6"/>
      </g>
     </g>
    </g>
    <g id="ytick_42">
     <g id="line2d_46">
      <g>
       <use xlink:href="#m08b6cb0412" x="49.485185" y="46.111442" style="stroke: #000000; stroke-width: 0.6"/>
      </g>
     </g>
    </g>
    <g id="ytick_43">
     <g id="line2d_47">
      <g>
       <use xlink:href="#m08b6cb0412" x="49.485185" y="43.19081" style="stroke: #000000; stroke-width: 0.6"/>
      </g>
     </g>
    </g>
    <g id="ytick_44">
     <g id="line2d_48">
      <g>
       <use xlink:href="#m08b6cb0412" x="49.485185" y="40.660844" style="stroke: #000000; stroke-width: 0.6"/>
      </g>
     </g>
    </g>
    <g id="ytick_45">
     <g id="line2d_49">
      <g>
       <use xlink:href="#m08b6cb0412" x="49.485185" y="38.429256" style="stroke: #000000; stroke-width: 0.6"/>
      </g>
     </g>
    </g>
    <g id="text_11">
     <!-- Expression level (TPM, log scale) -->
     <g transform="translate(18.805497 217.865625) rotate(-90) scale(0.1 -0.1)">
      <defs>
       <path id="DejaVuSans-45" d="M 628 4666 
L 3578 4666 
L 3578 4134 
L 1259 4134 
L 1259 2753 
L 3481 2753 
L 3481 2222 
L 1259 2222 
L 1259 531 
L 3634 531 
L 3634 0 
L 628 0 
L 628 4666 
z
" transform="scale(0.015625)"/>
       <path id="DejaVuSans-78" d="M 3513 3500 
L 2247 1797 
L 3578 0 
L 2900 0 
L 1881 1375 
L 863 0 
L 184 0 
L 1544 1831 
L 300 3500 
L 978 3500 
L 1906 2253 
L 2834 3500 
L 3513 3500 
z
" transform="scale(0.015625)"/>
       <path id="DejaVuSans-70" d="M 1159 525 
L 1159 -1331 
L 581 -1331 
L 581 3500 
L 1159 3500 
L 1159 2969 
Q 1341 3281 1617 3432 
Q 1894 3584 2278 3584 
Q 2916 3584 3314 3078 
Q 3713 2572 3713 1747 
Q 3713 922 3314 415 
Q 2916 -91 2278 -91 
Q 1894 -91 1617 61 
Q 1341 213 1159 525 
z
M 3116 1747 
Q 3116 2381 2855 2742 
Q 2594 3103 2138 3103 
Q 1681 3103 1420 2742 
Q 1159 2381 1159 1747 
Q 1159 1113 1420 752 
Q 1681 391 2138 391 
Q 2594 391 2855 752 
Q 3116 1113 3116 1747 
z
" transform="scale(0.015625)"/>
       <path id="DejaVuSans-20" transform="scale(0.015625)"/>
       <path id="DejaVuSans-6c" d="M 603 4863 
L 1178 4863 
L 1178 0 
L 603 0 
L 603 4863 
z
" transform="scale(0.015625)"/>
       <path id="DejaVuSans-28" d="M 1984 4856 
Q 1566 4138 1362 3434 
Q 1159 2731 1159 2009 
Q 1159 1288 1364 580 
Q 1569 -128 1984 -844 
L 1484 -844 
Q 1016 -109 783 600 
Q 550 1309 550 2009 
Q 550 2706 781 3412 
Q 1013 4119 1484 4856 
L 1984 4856 
z
" transform="scale(0.015625)"/>
       <path id="DejaVuSans-54" d="M -19 4666 
L 3928 4666 
L 3928 4134 
L 2272 4134 
L 2272 0 
L 1638 0 
L 1638 4134 
L -19 4134 
L -19 4666 
z
" transform="scale(0.015625)"/>
       <path id="DejaVuSans-50" d="M 1259 4147 
L 1259 2394 
L 2053 2394 
Q 2494 2394 2734 2622 
Q 2975 2850 2975 3272 
Q 2975 3691 2734 3919 
Q 2494 4147 2053 4147 
L 1259 4147 
z
M 628 4666 
L 2053 4666 
Q 2838 4666 3239 4311 
Q 3641 3956 3641 3272 
Q 3641 2581 3239 2228 
Q 2838 1875 2053 1875 
L 1259 1875 
L 1259 0 
L 628 0 
L 628 4666 
z
" transform="scale(0.015625)"/>
       <path id="DejaVuSans-2c" d="M 750 794 
L 1409 794 
L 1409 256 
L 897 -744 
L 494 -744 
L 750 256 
L 750 794 
z
" transform="scale(0.015625)"/>
       <path id="DejaVuSans-67" d="M 2906 1791 
Q 2906 2416 2648 2759 
Q 2391 3103 1925 3103 
Q 1463 3103 1205 2759 
Q 947 2416 947 1791 
Q 947 1169 1205 825 
Q 1463 481 1925 481 
Q 2391 481 2648 825 
Q 2906 1169 2906 1791 
z
M 3481 434 
Q 3481 -459 3084 -895 
Q 2688 -1331 1869 -1331 
Q 1566 -1331 1297 -1286 
Q 1028 -1241 775 -1147 
L 775 -588 
Q 1028 -725 1275 -790 
Q 1522 -856 1778 -856 
Q 2344 -856 2625 -561 
Q 2906 -266 2906 331 
L 2906 616 
Q 2728 306 2450 153 
Q 2172 0 1784 0 
Q 1141 0 747 490 
Q 353 981 353 1791 
Q 353 2603 747 3093 
Q 1141 3584 1784 3584 
Q 2172 3584 2450 3431 
Q 2728 3278 2906 2969 
L 2906 3500 
L 3481 3500 
L 3481 434 
z
" transform="scale(0.015625)"/>
       <path id="DejaVuSans-29" d="M 513 4856 
L 1013 4856 
Q 1481 4119 1714 3412 
Q 1947 2706 1947 2009 
Q 1947 1309 1714 600 
Q 1481 -109 1013 -844 
L 513 -844 
Q 928 -128 1133 580 
Q 1338 1288 1338 2009 
Q 1338 2731 1133 3434 
Q 928 4138 513 4856 
z
" transform="scale(0.015625)"/>
      </defs>
      <use xlink:href="#DejaVuSans-45"/>
      <use xlink:href="#DejaVuSans-78" x="63.183594"/>
      <use xlink:href="#DejaVuSans-70" x="122.363281"/>
      <use xlink:href="#DejaVuSans-72" x="185.839844"/>
      <use xlink:href="#DejaVuSans-65" x="224.703125"/>
      <use xlink:href="#DejaVuSans-73" x="286.226562"/>
      <use xlink:href="#DejaVuSans-73" x="338.326172"/>
      <use xlink:href="#DejaVuSans-69" x="390.425781"/>
      <use xlink:href="#DejaVuSans-6f" x="418.208984"/>
      <use xlink:href="#DejaVuSans-6e" x="479.390625"/>
      <use xlink:href="#DejaVuSans-20" x="542.769531"/>
      <use xlink:href="#DejaVuSans-6c" x="574.556641"/>
      <use xlink:href="#DejaVuSans-65" x="602.339844"/>
      <use xlink:href="#DejaVuSans-76" x="663.863281"/>
      <use xlink:href="#DejaVuSans-65" x="723.042969"/>
      <use xlink:href="#DejaVuSans-6c" x="784.566406"/>
      <use xlink:href="#DejaVuSans-20" x="812.349609"/>
      <use xlink:href="#DejaVuSans-28" x="844.136719"/>
      <use xlink:href="#DejaVuSans-54" x="883.150391"/>
      <use xlink:href="#DejaVuSans-50" x="944.234375"/>
      <use xlink:href="#DejaVuSans-4d" x="1004.537109"/>
      <use xlink:href="#DejaVuSans-2c" x="1090.816406"/>
      <use xlink:href="#DejaVuSans-20" x="1122.603516"/>
      <use xlink:href="#DejaVuSans-6c" x="1154.390625"/>
      <use xlink:href="#DejaVuSans-6f" x="1182.173828"/>
      <use xlink:href="#DejaVuSans-67" x="1243.355469"/>
      <use xlink:href="#DejaVuSans-20" x="1306.832031"/>
      <use xlink:href="#DejaVuSans-73" x="1338.619141"/>
      <use xlink:href="#DejaVuSans-63" x="1390.71875"/>
      <use xlink:href="#DejaVuSans-61" x="1445.699219"/>
      <use xlink:href="#DejaVuSans-6c" x="1506.978516"/>
      <use xlink:href="#DejaVuSans-65" x="1534.761719"/>
      <use xlink:href="#DejaVuSans-29" x="1596.285156"/>
     </g>
    </g>
   </g>
   <g id="patch_3">
    <path d="M 59.835858 236.068799 
L 103.417641 236.068799 
L 103.417641 213.940988 
L 59.835858 213.940988 
L 59.835858 236.068799 
z
" clip-path="url(#p03940e0fa6)" style="fill: #ffffff; stroke: #787878; stroke-linejoin: miter"/>
   </g>
   <g id="line2d_50">
    <path d="M 81.62675 236.068799 
L 81.62675 289 
" clip-path="url(#p03940e0fa6)" style="fill: none; stroke: #787878"/>
   </g>
   <g id="line2d_51">
    <path d="M 81.62675 213.940988 
L 81.62675 207.866579 
" clip-path="url(#p03940e0fa6)" style="fill: none; stroke: #787878"/>
   </g>
   <g id="line2d_52">
    <path clip-path="url(#p03940e0fa6)" style="fill: none; stroke: #787878; stroke-linecap: square"/>
   </g>
   <g id="line2d_53">
    <path d="M 70.731304 207.866579 
L 92.522195 207.866579 
" clip-path="url(#p03940e0fa6)" style="fill: none; stroke: #787878; stroke-linecap: square"/>
   </g>
   <g id="line2d_54"/>
   <g id="patch_4">
    <path d="M 114.313087 126.015432 
L 157.89487 126.015432 
L 157.89487 118.237798 
L 114.313087 118.237798 
L 114.313087 126.015432 
z
" clip-path="url(#p03940e0fa6)" style="fill: #e8adad; stroke: #787878; stroke-linejoin: miter"/>
   </g>
   <g id="line2d_55">
    <path d="M 136.103978 126.015432 
L 136.103978 135.492605 
" clip-path="url(#p03940e0fa6)" style="fill: none; stroke: #787878"/>
   </g>
   <g id="line2d_56">
    <path d="M 136.103978 118.237798 
L 136.103978 116.856883 
" clip-path="url(#p03940e0fa6)" style="fill: none; stroke: #787878"/>
   </g>
   <g id="line2d_57">
    <path d="M 125.208532 135.492605 
L 146.999424 135.492605 
" clip-path="url(#p03940e0fa6)" style="fill: none; stroke: #787878; stroke-linecap: square"/>
   </g>
   <g id="line2d_58">
    <path d="M 125.208532 116.856883 
L 146.999424 116.856883 
" clip-path="url(#p03940e0fa6)" style="fill: none; stroke: #787878; stroke-linecap: square"/>
   </g>
   <g id="line2d_59"/>
   <g id="patch_5">
    <path d="M 168.790315 122.723246 
L 212.372098 122.723246 
L 212.372098 106.839131 
L 168.790315 106.839131 
L 168.790315 122.723246 
z
" clip-path="url(#p03940e0fa6)" style="fill: #bdf0b7; stroke: #787878; stroke-linejoin: miter"/>
   </g>
   <g id="line2d_60">
    <path d="M 190.581207 122.723246 
L 190.581207 129.581302 
" clip-path="url(#p03940e0fa6)" style="fill: none; stroke: #787878"/>
   </g>
   <g id="line2d_61">
    <path d="M 190.581207 106.839131 
L 190.581207 99.979675 
" clip-path="url(#p03940e0fa6)" style="fill: none; stroke: #787878"/>
   </g>
   <g id="line2d_62">
    <path d="M 179.685761 129.581302 
L 201.476652 129.581302 
" clip-path="url(#p03940e0fa6)" style="fill: none; stroke: #787878; stroke-linecap: square"/>
   </g>
   <g id="line2d_63">
    <path d="M 179.685761 99.979675 
L 201.476652 99.979675 
" clip-path="url(#p03940e0fa6)" style="fill: none; stroke: #787878; stroke-linecap: square"/>
   </g>
   <g id="line2d_64"/>
   <g id="patch_6">
    <path d="M 223.267544 67.228118 
L 266.849327 67.228118 
L 266.849327 62.203575 
L 223.267544 62.203575 
L 223.267544 67.228118 
z
" clip-path="url(#p03940e0fa6)" style="fill: #a6c0ea; stroke: #787878; stroke-linejoin: miter"/>
   </g>
   <g id="line2d_65">
    <path d="M 245.058435 67.228118 
L 245.058435 73.546487 
" clip-path="url(#p03940e0fa6)" style="fill: none; stroke: #787878"/>
   </g>
   <g id="line2d_66">
    <path d="M 245.058435 62.203575 
L 245.058435 61.913557 
" clip-path="url(#p03940e0fa6)" style="fill: none; stroke: #787878"/>
   </g>
   <g id="line2d_67">
    <path d="M 234.162989 73.546487 
L 255.953881 73.546487 
" clip-path="url(#p03940e0fa6)" style="fill: none; stroke: #787878; stroke-linecap: square"/>
   </g>
   <g id="line2d_68">
    <path d="M 234.162989 61.913557 
L 255.953881 61.913557 
" clip-path="url(#p03940e0fa6)" style="fill: none; stroke: #787878; stroke-linecap: square"/>
   </g>
   <g id="line2d_69"/>
   <g id="line2d_70">
    <path d="M 136.103978 54.231371 
L 136.103978 51.583357 
L 245.058435 51.583357 
L 245.058435 54.231371 
" clip-path="url(#p03940e0fa6)" style="fill: none; stroke: #000000; stroke-width: 1.2; stroke-linecap: square"/>
   </g>
   <g id="line2d_71">
    <path d="M 245.058435 39.292784 
L 245.058435 36.64477 
L 190.581207 36.64477 
L 190.581207 39.292784 
" clip-path="url(#p03940e0fa6)" style="fill: none; stroke: #000000; stroke-width: 1.2; stroke-linecap: square"/>
   </g>
   <g id="line2d_72">
    <path d="M 59.835858 222.936015 
L 103.417641 222.936015 
" clip-path="url(#p03940e0fa6)" style="fill: none; stroke: #787878"/>
   </g>
   <g id="line2d_73">
    <path d="M 114.313087 119.727329 
L 157.89487 119.727329 
" clip-path="url(#p03940e0fa6)" style="fill: none; stroke: #787878"/>
   </g>
   <g id="line2d_74">
    <path d="M 168.790315 117.698558 
L 212.372098 117.698558 
" clip-path="url(#p03940e0fa6)" style="fill: none; stroke: #787878"/>
   </g>
   <g id="line2d_75">
    <path d="M 223.267544 62.498101 
L 266.849327 62.498101 
" clip-path="url(#p03940e0fa6)" style="fill: none; stroke: #787878"/>
   </g>
   <g id="patch_7">
    <path d="M 49.485185 246.04 
L 49.485185 26.16 
" style="fill: none; stroke: #000000; stroke-width: 0.8; stroke-linejoin: miter; stroke-linecap: square"/>
   </g>
   <g id="patch_8">
    <path d="M 277.2 246.04 
L 277.2 26.16 
" style="fill: none; stroke: #000000; stroke-width: 0.8; stroke-linejoin: miter; stroke-linecap: square"/>
   </g>
   <g id="patch_9">
    <path d="M 49.485185 246.04 
L 277.2 246.04 
" style="fill: none; stroke: #000000; stroke-width: 0.8; stroke-linejoin: miter; stroke-linecap: square"/>
   </g>
   <g id="patch_10">
    <path d="M 49.485185 26.16 
L 277.2 26.16 
" style="fill: none; stroke: #000000; stroke-width: 0.8; stroke-linejoin: miter; stroke-linecap: square"/>
   </g>
   <g id="PathCollection_1">
    <defs>
     <path id="m9e045c82ac" d="M 0 2.5 
C 0.663008 2.5 1.29895 2.236584 1.767767 1.767767 
C 2.236584 1.29895 2.5 0.663008 2.5 0 
C 2.5 -0.663008 2.236584 -1.29895 1.767767 -1.767767 
C 1.29895 -2.236584 0.663008 -2.5 0 -2.5 
C -0.663008 -2.5 -1.29895 -2.236584 -1.767767 -1.767767 
C -2.236584 -1.29895 -2.5 -0.663008 -2.5 0 
C -2.5 0.663008 -2.236584 1.29895 -1.767767 1.767767 
C -1.29895 2.236584 -0.663008 2.5 0 2.5 
z
"/>
    </defs>
    <g clip-path="url(#p03940e0fa6)">
     <use xlink:href="#m9e045c82ac" x="82.008183" y="222.936015"/>
     <use xlink:href="#m9e045c82ac" x="80.2603" y="207.866579"/>
    </g>
   </g>
   <g id="PathCollection_2">
    <g clip-path="url(#p03940e0fa6)">
     <use xlink:href="#m9e045c82ac" x="139.540131" y="119.727329"/>
     <use xlink:href="#m9e045c82ac" x="141.365793" y="116.856883"/>
     <use xlink:href="#m9e045c82ac" x="130.692405" y="135.492605"/>
    </g>
   </g>
   <g id="PathCollection_3">
    <g clip-path="url(#p03940e0fa6)">
     <use xlink:href="#m9e045c82ac" x="188.394698" y="117.698558"/>
     <use xlink:href="#m9e045c82ac" x="192.7473" y="129.581302"/>
     <use xlink:href="#m9e045c82ac" x="187.756771" y="99.979675"/>
    </g>
   </g>
   <g id="PathCollection_4">
    <g clip-path="url(#p03940e0fa6)">
     <use xlink:href="#m9e045c82ac" x="250.403255" y="73.546487"/>
     <use xlink:href="#m9e045c82ac" x="241.4296" y="61.913557"/>
     <use xlink:href="#m9e045c82ac" x="241.467189" y="62.498101"/>
    </g>
   </g>
   <g id="text_12">
    <!-- p=7.8e-13 (***) -->
    <g transform="translate(154.98691 49.588475) scale(0.09 -0.09)">
     <defs>
      <path id="DejaVuSans-3d" d="M 678 2906 
L 4684 2906 
L 4684 2381 
L 678 2381 
L 678 2906 
z
M 678 1631 
L 4684 1631 
L 4684 1100 
L 678 1100 
L 678 1631 
z
" transform="scale(0.015625)"/>
      <path id="DejaVuSans-37" d="M 525 4666 
L 3525 4666 
L 3525 4397 
L 1831 0 
L 1172 0 
L 2766 4134 
L 525 4134 
L 525 4666 
z
" transform="scale(0.015625)"/>
      <path id="DejaVuSans-2e" d="M 684 794 
L 1344 794 
L 1344 0 
L 684 0 
L 684 794 
z
" transform="scale(0.015625)"/>
      <path id="DejaVuSans-38" d="M 2034 2216 
Q 1584 2216 1326 1975 
Q 1069 1734 1069 1313 
Q 1069 891 1326 650 
Q 1584 409 2034 409 
Q 2484 409 2743 651 
Q 3003 894 3003 1313 
Q 3003 1734 2745 1975 
Q 2488 2216 2034 2216 
z
M 1403 2484 
Q 997 2584 770 2862 
Q 544 3141 544 3541 
Q 544 4100 942 4425 
Q 1341 4750 2034 4750 
Q 2731 4750 3128 4425 
Q 3525 4100 3525 3541 
Q 3525 3141 3298 2862 
Q 3072 2584 2669 2484 
Q 3125 2378 3379 2068 
Q 3634 1759 3634 1313 
Q 3634 634 3220 271 
Q 2806 -91 2034 -91 
Q 1263 -91 848 271 
Q 434 634 434 1313 
Q 434 1759 690 2068 
Q 947 2378 1403 2484 
z
M 1172 3481 
Q 1172 3119 1398 2916 
Q 1625 2713 2034 2713 
Q 2441 2713 2670 2916 
Q 2900 3119 2900 3481 
Q 2900 3844 2670 4047 
Q 2441 4250 2034 4250 
Q 1625 4250 1398 4047 
Q 1172 3844 1172 3481 
z
" transform="scale(0.015625)"/>
      <path id="DejaVuSans-2d" d="M 313 2009 
L 1997 2009 
L 1997 1497 
L 313 1497 
L 313 2009 
z
" transform="scale(0.015625)"/>
      <path id="DejaVuSans-2a" d="M 3009 3897 
L 1888 3291 
L 3009 2681 
L 2828 2375 
L 1778 3009 
L 1778 1831 
L 1422 1831 
L 1422 3009 
L 372 2375 
L 191 2681 
L 1313 3291 
L 191 3897 
L 372 4206 
L 1422 3572 
L 1422 4750 
L 1778 4750 
L 1778 3572 
L 2828 4206 
L 3009 3897 
z
" transform="scale(0.015625)"/>
     </defs>
     <use xlink:href="#DejaVuSans-70"/>
     <use xlink:href="#DejaVuSans-3d" x="63.476562"/>
     <use xlink:href="#DejaVuSans-37" x="147.265625"/>
     <use xlink:href="#DejaVuSans-2e" x="210.888672"/>
     <use xlink:href="#DejaVuSans-38" x="242.675781"/>
     <use xlink:href="#DejaVuSans-65" x="306.298828"/>
     <use xlink:href="#DejaVuSans-2d" x="367.822266"/>
     <use xlink:href="#DejaVuSans-31" x="403.90625"/>
     <use xlink:href="#DejaVuSans-33" x="467.529297"/>
     <use xlink:href="#DejaVuSans-20" x="531.152344"/>
     <use xlink:href="#DejaVuSans-28" x="562.939453"/>
     <use xlink:href="#DejaVuSans-2a" x="601.953125"/>
     <use xlink:href="#DejaVuSans-2a" x="651.953125"/>
     <use xlink:href="#DejaVuSans-2a" x="701.953125"/>
     <use xlink:href="#DejaVuSans-29" x="751.953125"/>
    </g>
   </g>
   <g id="text_13">
    <!-- p=5.8e-11 (***) -->
    <g transform="translate(182.225524 34.649887) scale(0.09 -0.09)">
     <defs>
      <path id="DejaVuSans-35" d="M 691 4666 
L 3169 4666 
L 3169 4134 
L 1269 4134 
L 1269 2991 
Q 1406 3038 1543 3061 
Q 1681 3084 1819 3084 
Q 2600 3084 3056 2656 
Q 3513 2228 3513 1497 
Q 3513 744 3044 326 
Q 2575 -91 1722 -91 
Q 1428 -91 1123 -41 
Q 819 9 494 109 
L 494 744 
Q 775 591 1075 516 
Q 1375 441 1709 441 
Q 2250 441 2565 725 
Q 2881 1009 2881 1497 
Q 2881 1984 2565 2268 
Q 2250 2553 1709 2553 
Q 1456 2553 1204 2497 
Q 953 2441 691 2322 
L 691 4666 
z
" transform="scale(0.015625)"/>
     </defs>
     <use xlink:href="#DejaVuSans-70"/>
     <use xlink:href="#DejaVuSans-3d" x="63.476562"/>
     <use xlink:href="#DejaVuSans-35" x="147.265625"/>
     <use xlink:href="#DejaVuSans-2e" x="210.888672"/>
     <use xlink:href="#DejaVuSans-38" x="242.675781"/>
     <use xlink:href="#DejaVuSans-65" x="306.298828"/>
     <use xlink:href="#DejaVuSans-2d" x="367.822266"/>
     <use xlink:href="#DejaVuSans-31" x="403.90625"/>
     <use xlink:href="#DejaVuSans-31" x="467.529297"/>
     <use xlink:href="#DejaVuSans-20" x="531.152344"/>
     <use xlink:href="#DejaVuSans-28" x="562.939453"/>
     <use xlink:href="#DejaVuSans-2a" x="601.953125"/>
     <use xlink:href="#DejaVuSans-2a" x="651.953125"/>
     <use xlink:href="#DejaVuSans-2a" x="701.953125"/>
     <use xlink:href="#DejaVuSans-29" x="751.953125"/>
    </g>
   </g>
   <g id="text_14">
    <!-- CCL5 (ENSG00000271503) -->
    <g transform="translate(82.483217 20.16) scale(0.12 -0.12)">
     <defs>
      <path id="DejaVuSans-43" d="M 4122 4306 
L 4122 3641 
Q 3803 3938 3442 4084 
Q 3081 4231 2675 4231 
Q 1875 4231 1450 3742 
Q 1025 3253 1025 2328 
Q 1025 1406 1450 917 
Q 1875 428 2675 428 
Q 3081 428 3442 575 
Q 3803 722 4122 1019 
L 4122 359 
Q 3791 134 3420 21 
Q 3050 -91 2638 -91 
Q 1578 -91 968 557 
Q 359 1206 359 2328 
Q 359 3453 968 4101 
Q 1578 4750 2638 4750 
Q 3056 4750 3426 4639 
Q 3797 4528 4122 4306 
z
" transform="scale(0.015625)"/>
      <path id="DejaVuSans-4c" d="M 628 4666 
L 1259 4666 
L 1259 531 
L 3531 531 
L 3531 0 
L 628 0 
L 628 4666 
z
" transform="scale(0.015625)"/>
      <path id="DejaVuSans-4e" d="M 628 4666 
L 1478 4666 
L 3547 763 
L 3547 4666 
L 4159 4666 
L 4159 0 
L 3309 0 
L 1241 3903 
L 1241 0 
L 628 0 
L 628 4666 
z
" transform="scale(0.015625)"/>
      <path id="DejaVuSans-47" d="M 3809 666 
L 3809 1919 
L 2778 1919 
L 2778 2438 
L 4434 2438 
L 4434 434 
Q 4069 175 3628 42 
Q 3188 -91 2688 -91 
Q 1594 -91 976 548 
Q 359 1188 359 2328 
Q 359 3472 976 4111 
Q 1594 4750 2688 4750 
Q 3144 4750 3555 4637 
Q 3966 4525 4313 4306 
L 4313 3634 
Q 3963 3931 3569 4081 
Q 3175 4231 2741 4231 
Q 1884 4231 1454 3753 
Q 1025 3275 1025 2328 
Q 1025 1384 1454 906 
Q 1884 428 2741 428 
Q 3075 428 3337 486 
Q 3600 544 3809 666 
z
" transform="scale(0.015625)"/>
     </defs>
     <use xlink:href="#DejaVuSans-43"/>
     <use xlink:href="#DejaVuSans-43" x="69.824219"/>
     <use xlink:href="#DejaVuSans-4c" x="139.648438"/>
     <use xlink:href="#DejaVuSans-35" x="195.361328"/>
     <use xlink:href="#DejaVuSans-20" x="258.984375"/>
     <use xlink:href="#DejaVuSans-28" x="290.771484"/>
     <use xlink:href="#DejaVuSans-45" x="329.785156"/>
     <use xlink:href="#DejaVuSans-4e" x="392.96875"/>
     <use xlink:href="#DejaVuSans-53" x="467.773438"/>
     <use xlink:href="#DejaVuSans-47" x="531.25"/>
     <use xlink:href="#DejaVuSans-30" x="608.740234"/>
     <use xlink:href="#DejaVuSans-30" x="672.363281"/>
     <use xlink:href="#DejaVuSans-30" x="735.986328"/>
     <use xlink:href="#DejaVuSans-30" x="799.609375"/>
     <use xlink:href="#DejaVuSans-30" x="863.232422"/>
     <use xlink:href="#DejaVuSans-32" x="926.855469"/>
     <use xlink:href="#DejaVuSans-37" x="990.478516"/>
     <use xlink:href="#DejaVuSans-31" x="1054.101562"/>
     <use xlink:href="#DejaVuSans-35" x="1117.724609"/>
     <use xlink:href="#DejaVuSans-30" x="1181.347656"/>
     <use xlink:href="#DejaVuSans-33" x="1244.970703"/>
     <use xlink:href="#DejaVuSans-29" x="1308.59375"/>
    </g>
   </g>
  </g>
 </g>
 <defs>
  <clipPath id="p03940e0fa6">
   <rect x="49.485185" y="26.16" width="227.714815" height="219.88"/>
  </clipPath>
 </defs>
</svg>
